:SAMPLES-PER-SECOND 30
:FULLY-SPECIFIED
:DEGREES
549
root  -2.3096 40.9691 1.18981 161.807 -89.6259 -161.699
RightUpLeg  3.71982 -0.575191 -0.422361
RightLeg  -2.93423 -16.7715 0.787848
RightFoot  -0.0124765 -0.216231 2.27028
RightToes  -3.10678e-008 1.75238e-005 3.56266e-009
Spine  -4.67876 1.28079 -3.44761
Spine1  6.85536 0.0431542 6.27269
HEad  -3.51976 -2.2219 -3.22035
LeftShoulder1  2.57262 -4.85401 -24.5738
LeftArm  -22.8421 -35.4408 -55.5779
LeftForeArm  79.4413 -12.1524 -1.2149
LeftHand  -0.951116 -2.09998 14.8953
RightShoulder  4.28469 7.96687 31.4453
RightArm  -26.6285 -6.64804 43.7318
RightForeArm  77.1525 3.72205 3.71486
RightHand  0.244308 4.36708 2.65979
LeftUpLeg  2.57506 1.02412 1.86633
LeftLeg  -1.61739 14.6748 -0.864728
LeftFoot  -0.31334 0.190356 -1.94602
LeftToes  4.76857e-008 1.46588e-008 1.31384e-009
550
root  -2.35094 40.9646 1.18457 13.4128 -88.7775 -13.0335
RightUpLeg  3.51022 -0.696152 -0.543758
RightLeg  -2.62791 -18.1402 0.76407
RightFoot  -0.341964 -0.222135 2.37148
RightToes  -3.10678e-008 1.75238e-005 3.56266e-009
Spine  -4.65566 0.77523 -4.01085
Spine1  6.89943 -0.549256 6.7637
HEad  -4.39786 -2.61787 -3.77467
LeftShoulder1  2.23191 -4.05199 -23.2934
LeftArm  -20.9101 -43.9666 -57.4739
LeftForeArm  76.3337 -17.3615 -1.11661
LeftHand  -1.03755 -2.43408 15.5573
RightShoulder  4.50992 8.22005 32.5766
RightArm  -30.8491 -18.6267 43.1203
RightForeArm  82.3143 3.2933 1.08763
RightHand  0.333804 3.72329 3.98447
LeftUpLeg  2.03785 0.881578 1.73488
LeftLeg  -1.37453 13.3271 -0.814482
LeftFoot  -0.309164 0.177907 -1.81348
LeftToes  4.76857e-008 1.46588e-008 1.31384e-009
551
root  -2.42758 40.9633 1.19809 1.50122 -87.751 -1.03259
RightUpLeg  3.76588 -0.927319 -0.705636
RightLeg  -2.85798 -18.9633 0.971117
RightFoot  -0.474339 -0.230003 2.49666
RightToes  -3.10678e-008 1.75238e-005 3.56266e-009
Spine  -4.51764 0.365833 -4.23611
Spine1  6.86815 -1.04867 7.14653
HEad  -5.16345 -2.87368 -4.24747
LeftShoulder1  2.04859 -3.55189 -22.7406
LeftArm  -20.8769 -51.4294 -57.716
LeftForeArm  75.6625 -21.7518 -1.28591
LeftHand  -1.04375 -2.36815 15.7832
RightShoulder  4.38437 8.10533 31.8574
RightArm  -33.9334 -30.4367 44.4405
RightForeArm  81.6239 4.57273 0.287317
RightHand  0.279872 3.88374 3.23988
LeftUpLeg  1.98594 0.770469 1.61844
LeftLeg  -1.47326 12.3761 -0.820316
LeftFoot  -0.284163 0.166921 -1.70769
LeftToes  4.76857e-008 1.46588e-008 1.31384e-009
552
root  -2.49351 40.9604 1.21866 1.01865 -87.172 -0.347778
RightUpLeg  3.72832 -0.98614 -0.76472
RightLeg  -2.87913 -19.4982 1.01422
RightFoot  -0.579271 -0.233548 2.54915
RightToes  -3.10678e-008 1.75238e-005 3.56266e-009
Spine  -4.76613 -0.0813115 -4.08105
Spine1  7.23424 -1.44304 6.76511
HEad  -5.67968 -2.64198 -4.00934
LeftShoulder1  1.77955 -2.78661 -21.9526
LeftArm  -22.0072 -57.8177 -56.8003
LeftForeArm  73.813 -25.054 -1.95836
LeftHand  -0.953405 -1.45187 16.2903
RightShoulder  4.04269 7.59822 30.5071
RightArm  -34.7311 -40.3119 46.6346
RightForeArm  78.9833 6.65302 1.53976
RightHand  0.36465 3.74921 4.36783
LeftUpLeg  1.76966 0.783168 1.60608
LeftLeg  -1.39977 11.7442 -0.891127
LeftFoot  -0.344591 0.152494 -1.56495
LeftToes  4.76857e-008 1.46588e-008 1.31384e-009
553
root  -2.56423 40.9578 1.25456 -0.242767 -86.8104 1.08942
RightUpLeg  3.66487 -1.11549 -0.916809
RightLeg  -2.8014 -19.7075 1.04086
RightFoot  -0.750312 -0.238988 2.6263
RightToes  -3.10678e-008 1.75238e-005 3.56266e-009
Spine  -5.37741 -0.614342 -3.66751
Spine1  7.75083 -1.83691 5.964
HEad  -5.62349 -2.0265 -3.70556
LeftShoulder1  1.54283 -2.07649 -21.2649
LeftArm  -23.3427 -63.036 -54.9272
LeftForeArm  71.2538 -26.1963 -2.26822
LeftHand  -0.857211 -0.791504 16.1899
RightShoulder  3.965 7.61901 29.7224
RightArm  -36.0679 -48.2543 48.6766
RightForeArm  75.86 8.81126 2.6102
RightHand  0.365993 3.54339 4.50295
LeftUpLeg  1.64141 0.732814 1.5002
LeftLeg  -1.3618 11.4345 -0.932592
LeftFoot  -0.461806 0.143317 -1.48617
LeftToes  4.76857e-008 1.46588e-008 1.31384e-009
